<mxfile host="app.diagrams.net" agent="Mozilla/5.0 (Windows NT 10.0; Win64; x64; rv:134.0) Gecko/20100101 Firefox/134.0" version="26.0.10">
  <diagram name="Page-1" id="OAi5JnlfZE8rosgQFHix">
    <mxGraphModel dx="1434" dy="773" grid="1" gridSize="10" guides="1" tooltips="1" connect="1" arrows="1" fold="1" page="1" pageScale="1" pageWidth="1169" pageHeight="827" math="0" shadow="0">
      <root>
        <mxCell id="0" />
        <mxCell id="1" parent="0" />
        <mxCell id="kKDFoNvPjo7TuK5ONDfq-1" value="Intact API" style="rounded=1;whiteSpace=wrap;html=1;" vertex="1" parent="1">
          <mxGeometry x="40" y="160" width="120" height="80" as="geometry" />
        </mxCell>
        <mxCell id="kKDFoNvPjo7TuK5ONDfq-5" style="edgeStyle=orthogonalEdgeStyle;rounded=0;orthogonalLoop=1;jettySize=auto;html=1;exitX=1;exitY=0.5;exitDx=0;exitDy=0;exitPerimeter=0;entryX=0;entryY=0.5;entryDx=0;entryDy=0;" edge="1" parent="1" source="kKDFoNvPjo7TuK5ONDfq-2" target="kKDFoNvPjo7TuK5ONDfq-4">
          <mxGeometry relative="1" as="geometry" />
        </mxCell>
        <mxCell id="kKDFoNvPjo7TuK5ONDfq-2" value="RedisDB" style="shape=cylinder3;whiteSpace=wrap;html=1;boundedLbl=1;backgroundOutline=1;size=15;" vertex="1" parent="1">
          <mxGeometry x="200" y="160" width="120" height="80" as="geometry" />
        </mxCell>
        <mxCell id="kKDFoNvPjo7TuK5ONDfq-3" style="edgeStyle=orthogonalEdgeStyle;rounded=0;orthogonalLoop=1;jettySize=auto;html=1;exitX=1;exitY=0.5;exitDx=0;exitDy=0;entryX=0;entryY=0.5;entryDx=0;entryDy=0;entryPerimeter=0;" edge="1" parent="1" source="kKDFoNvPjo7TuK5ONDfq-1" target="kKDFoNvPjo7TuK5ONDfq-2">
          <mxGeometry relative="1" as="geometry" />
        </mxCell>
        <mxCell id="kKDFoNvPjo7TuK5ONDfq-9" style="edgeStyle=orthogonalEdgeStyle;rounded=0;orthogonalLoop=1;jettySize=auto;html=1;exitX=1;exitY=0.5;exitDx=0;exitDy=0;entryX=0;entryY=0.5;entryDx=0;entryDy=0;" edge="1" parent="1" source="kKDFoNvPjo7TuK5ONDfq-4" target="kKDFoNvPjo7TuK5ONDfq-8">
          <mxGeometry relative="1" as="geometry" />
        </mxCell>
        <mxCell id="kKDFoNvPjo7TuK5ONDfq-10" style="edgeStyle=orthogonalEdgeStyle;rounded=0;orthogonalLoop=1;jettySize=auto;html=1;exitX=1;exitY=0.5;exitDx=0;exitDy=0;" edge="1" parent="1" source="kKDFoNvPjo7TuK5ONDfq-4" target="kKDFoNvPjo7TuK5ONDfq-7">
          <mxGeometry relative="1" as="geometry" />
        </mxCell>
        <mxCell id="kKDFoNvPjo7TuK5ONDfq-11" style="edgeStyle=orthogonalEdgeStyle;rounded=0;orthogonalLoop=1;jettySize=auto;html=1;exitX=1;exitY=0.5;exitDx=0;exitDy=0;entryX=0;entryY=0.5;entryDx=0;entryDy=0;" edge="1" parent="1" source="kKDFoNvPjo7TuK5ONDfq-4" target="kKDFoNvPjo7TuK5ONDfq-6">
          <mxGeometry relative="1" as="geometry" />
        </mxCell>
        <mxCell id="kKDFoNvPjo7TuK5ONDfq-4" value="&lt;div&gt;Catalog Service&lt;/div&gt;" style="rounded=1;whiteSpace=wrap;html=1;" vertex="1" parent="1">
          <mxGeometry x="360" y="160" width="120" height="80" as="geometry" />
        </mxCell>
        <mxCell id="kKDFoNvPjo7TuK5ONDfq-17" style="edgeStyle=orthogonalEdgeStyle;rounded=0;orthogonalLoop=1;jettySize=auto;html=1;exitX=1;exitY=0.5;exitDx=0;exitDy=0;entryX=0;entryY=0.5;entryDx=0;entryDy=0;" edge="1" parent="1" source="kKDFoNvPjo7TuK5ONDfq-6" target="kKDFoNvPjo7TuK5ONDfq-12">
          <mxGeometry relative="1" as="geometry" />
        </mxCell>
        <mxCell id="kKDFoNvPjo7TuK5ONDfq-6" value="Overview Service" style="rounded=1;whiteSpace=wrap;html=1;" vertex="1" parent="1">
          <mxGeometry x="520" y="40" width="120" height="80" as="geometry" />
        </mxCell>
        <mxCell id="kKDFoNvPjo7TuK5ONDfq-15" style="edgeStyle=orthogonalEdgeStyle;rounded=0;orthogonalLoop=1;jettySize=auto;html=1;exitX=1;exitY=0.5;exitDx=0;exitDy=0;entryX=0;entryY=0.5;entryDx=0;entryDy=0;" edge="1" parent="1" source="kKDFoNvPjo7TuK5ONDfq-7" target="kKDFoNvPjo7TuK5ONDfq-12">
          <mxGeometry relative="1" as="geometry" />
        </mxCell>
        <mxCell id="kKDFoNvPjo7TuK5ONDfq-7" value="View Client Service" style="rounded=1;whiteSpace=wrap;html=1;" vertex="1" parent="1">
          <mxGeometry x="520" y="160" width="120" height="80" as="geometry" />
        </mxCell>
        <mxCell id="kKDFoNvPjo7TuK5ONDfq-16" style="edgeStyle=orthogonalEdgeStyle;rounded=0;orthogonalLoop=1;jettySize=auto;html=1;exitX=1;exitY=0.5;exitDx=0;exitDy=0;entryX=0;entryY=0.5;entryDx=0;entryDy=0;" edge="1" parent="1" source="kKDFoNvPjo7TuK5ONDfq-8" target="kKDFoNvPjo7TuK5ONDfq-12">
          <mxGeometry relative="1" as="geometry" />
        </mxCell>
        <mxCell id="kKDFoNvPjo7TuK5ONDfq-8" value="View Prospects Service" style="rounded=1;whiteSpace=wrap;html=1;" vertex="1" parent="1">
          <mxGeometry x="520" y="280" width="120" height="80" as="geometry" />
        </mxCell>
        <mxCell id="kKDFoNvPjo7TuK5ONDfq-14" style="edgeStyle=orthogonalEdgeStyle;rounded=0;orthogonalLoop=1;jettySize=auto;html=1;exitX=1;exitY=0.5;exitDx=0;exitDy=0;" edge="1" parent="1" source="kKDFoNvPjo7TuK5ONDfq-12">
          <mxGeometry relative="1" as="geometry">
            <mxPoint x="840" y="200" as="targetPoint" />
          </mxGeometry>
        </mxCell>
        <mxCell id="kKDFoNvPjo7TuK5ONDfq-12" value="Loadbalancer Gateway" style="rounded=1;whiteSpace=wrap;html=1;" vertex="1" parent="1">
          <mxGeometry x="680" y="160" width="120" height="80" as="geometry" />
        </mxCell>
        <mxCell id="kKDFoNvPjo7TuK5ONDfq-13" value="End User Client" style="rounded=1;whiteSpace=wrap;html=1;" vertex="1" parent="1">
          <mxGeometry x="840" y="160" width="120" height="80" as="geometry" />
        </mxCell>
      </root>
    </mxGraphModel>
  </diagram>
</mxfile>
